<?xml version="1.0" standalone="no"?>
<!DOCTYPE svg PUBLIC "-//W3C//DTD SVG 20010904//EN"
 "http://www.w3.org/TR/2001/REC-SVG-20010904/DTD/svg10.dtd">
<svg version="1.0" xmlns="http://www.w3.org/2000/svg"
 width="500.000000pt" height="500.000000pt" viewBox="0 0 500.000000 500.000000"
 preserveAspectRatio="xMidYMid meet">

<g transform="translate(0.000000,500.000000) scale(0.100000,-0.100000)"
fill="#000000" stroke="none">
<path d="M1424 3649 c24 -90 38 -211 31 -292 -11 -146 -54 -263 -158 -436 -46
-77 -44 -102 10 -124 l38 -15 111 108 c115 111 175 149 294 184 78 23 216 21
282 -4 29 -11 57 -20 61 -20 14 0 -166 200 -269 300 -111 107 -259 228 -348
285 -56 36 -59 36 -52 14z"/>
<path d="M3540 3646 c-121 -69 -439 -358 -590 -535 -47 -55 -51 -63 -30 -57
115 34 139 38 215 33 94 -6 224 -51 295 -103 25 -18 80 -68 123 -112 78 -78
79 -79 118 -72 53 10 71 27 68 64 -2 17 -1 36 3 41 3 6 -2 42 -11 80 -11 44
-20 64 -24 55 -4 -8 -5 -3 -2 11 4 21 0 28 -15 32 -11 3 -20 11 -20 17 0 7 7
10 15 6 17 -6 19 2 5 24 -10 16 -11 15 -29 -15 -10 -17 -11 -15 -5 14 4 23 3
31 -5 27 -6 -4 -12 -17 -12 -29 -1 -17 -2 -18 -6 -4 -2 9 -9 15 -14 12 -5 -4
-9 -1 -9 5 0 6 -4 8 -10 5 -16 -10 -12 18 7 44 12 18 13 22 2 15 -24 -15 -41
-14 -35 3 4 9 1 22 -5 29 -31 38 -30 296 2 376 19 46 9 57 -31 34z m110 -560
c0 -2 -7 -7 -16 -10 -8 -3 -12 -2 -9 4 6 10 25 14 25 6z"/>
<path d="M3614 3178 l-19 -23 23 19 c21 18 27 26 19 26 -2 0 -12 -10 -23 -22z"/>
<path d="M1445 2691 l-40 -7 30 -8 c71 -18 103 -31 151 -58 56 -31 146 -120
186 -183 47 -74 139 -147 286 -225 35 -18 81 -51 103 -72 62 -61 130 -174 166
-278 l33 -95 -4 120 c-10 249 -82 438 -224 587 -96 100 -196 155 -367 198 -86
22 -255 33 -320 21z"/>
<path d="M3360 2693 c-85 -13 -186 -39 -255 -66 -290 -111 -467 -406 -464
-772 l1 -90 19 65 c48 165 139 296 251 361 40 23 102 59 138 80 72 42 152 113
192 174 69 102 204 202 298 220 19 3 44 9 55 13 17 5 16 7 -10 13 -32 7 -184
9 -225 2z"/>
<path d="M2875 1769 c-4 -6 -5 -12 -2 -15 2 -3 7 2 10 11 7 17 1 20 -8 4z"/>
<path d="M2406 1560 c-35 -11 -65 -38 -77 -69 -13 -32 22 -88 104 -170 l65
-64 29 21 c29 21 188 182 166 169 -9 -6 -13 0 -13 21 0 34 -30 69 -76 88 -36
15 -152 17 -198 4z"/>
</g>
</svg>
